#!OML:ASF H:\Terrain\Patient Classification 1\Terrain2\Thursday\justin.ASF
:FULLY-SPECIFIED
:DEGREES
2358
root -2.06224 17.3751 -21.2278 -361.431 -1.73092 -7.04626
lowerback 10.691 1.36004 7.99195
upperback 3.78552 2.70454 3.38063
thorax -1.81736 1.36427 -1.28341
lowerneck -15.0526 -1.47982 -7.91556
upperneck 35.9999 -0.336806 1.99265
head 15.1258 -0.92565 2.18497
rclavicle 3.45885e-014 2.46493e-014
rhumerus -28.2586 -9.73933 -81.0345
rradius 24.5089
rwrist -9.04704
rhand -20.427 11.3962
rfingers 7.12502
rthumb 5.92762 -18.5009
lclavicle 3.45885e-014 2.46493e-014
lhumerus -34.3426 7.35276 82.9386
lradius 31.4521
lwrist 1.04575
lhand -14.1743 21.6665
lfingers 7.12502
lthumb 11.961 51.3047
rfemur 9.16089 0.00425211 33.547
rtibia 6.71286
rfoot -11.2987 3.4608
rtoes 17.0253
lfemur -67.3168 12.7794 -15.3038
ltibia 102.832
lfoot -17.2079 -19.4117
ltoes -11.6896
2359
root -2.07005 17.3636 -21.1927 -361.388 -1.81804 -7.16625
lowerback 10.5999 1.39043 8.16622
upperback 3.87566 2.74428 3.35962
thorax -1.65902 1.39229 -1.40036
lowerneck -15.0489 -1.47806 -7.97134
upperneck 35.9928 -0.384558 2.17475
head 15.1235 -0.927985 2.26362
rclavicle 3.37934e-015 -1.19271e-015
rhumerus -28.088 -9.36972 -81.3273
rradius 24.7228
rwrist -9.2819
rhand -20.8087 10.651
rfingers 7.12502
rthumb 5.55903 -19.2561
lclavicle 3.37934e-015 -1.19271e-015
lhumerus -34.3294 7.23207 82.8332
lradius 31.1102
lwrist 1.28018
lhand -14.4341 21.0996
lfingers 7.12502
lthumb 11.7105 50.7523
rfemur 9.2366 0.00473107 33.7472
rtibia 6.7986
rfoot -11.3966 3.45323
rtoes 17.0483
lfemur -68.0699 12.6288 -15.4182
ltibia 101.605
lfoot -17.4484 -19.6056
ltoes -11.7066
2360
root -2.07439 17.3647 -21.1542 -361.285 -1.89665 -6.89975
lowerback 10.5091 1.35411 7.69837
upperback 3.85169 2.64365 3.42726
thorax -1.67036 1.3386 -1.05858
lowerneck -14.6875 -1.37496 -8.33756
upperneck 35.6646 -0.219354 2.34194
head 14.8736 -0.876162 2.41699
rclavicle 1.23246e-014 -7.95139e-016
rhumerus -28.2458 -8.39868 -81.5232
rradius 25.1024
rwrist -9.69014
rhand -21.1094 10.5826
rfingers 7.12502
rthumb 5.26872 -19.3319
lclavicle 1.23246e-014 -7.95139e-016
lhumerus -34.5459 7.91662 82.7004
lradius 30.5939
lwrist 0.983554
lhand -14.6354 20.0613
lfingers 7.12502
lthumb 11.5164 49.725
rfemur 9.18046 0.033392 33.4844
rtibia 7.01762
rfoot -11.5369 3.42463
rtoes 17.6265
lfemur -68.467 12.3874 -15.8593
ltibia 100.104
lfoot -16.9147 -20.1902
ltoes -7.58902
2361
root -2.07645 17.3472 -21.1142 -361.237 -1.96369 -6.99556
lowerback 10.5473 1.3088 7.69811
upperback 3.79193 2.59434 3.50735
thorax -1.76148 1.30939 -0.972384
lowerneck -14.1349 -1.27912 -8.46331
upperneck 35.107 -0.113836 2.36585
head 14.478 -0.828992 2.45051
rclavicle -1.17283e-014 -1.59028e-015
rhumerus -28.4109 -7.53913 -81.8029
rradius 25.1807
rwrist -10.3477
rhand -21.5515 12.325
rfingers 7.12502
rthumb 4.84187 -17.5997
lclavicle -1.17283e-014 -1.59028e-015
lhumerus -34.6674 8.50946 82.4852
lradius 29.9849
lwrist 0.658474
lhand -14.7477 19.7805
lfingers 7.12502
lthumb 11.4081 49.4501
rfemur 9.27539 0.0204167 33.6305
rtibia 7.051
rfoot -11.6595 3.3955
rtoes 17.4783
lfemur -68.8416 12.2501 -15.8757
ltibia 98.5966
lfoot -15.8872 -20.7711
ltoes -4.27743
2362
root -2.07733 17.3264 -21.0727 -361.303 -1.92147 -7.22425
lowerback 10.7941 1.23405 8.02022
upperback 3.74759 2.55747 3.4794
thorax -1.92862 1.2859 -1.18397
lowerneck -14.2085 -1.22268 -8.06487
upperneck 35.1962 -0.0385624 2.07685
head 14.5291 -0.786076 2.27541
rclavicle 2.17669e-014 3.89618e-014
rhumerus -28.639 -7.20964 -82.0821
rradius 25.6565
rwrist -10.2412
rhand -22.4198 14.2808
rfingers 7.12502
rthumb 4.0034 -15.6613
lclavicle 2.17669e-014 3.89618e-014
lhumerus -34.7946 8.58698 82.2358
lradius 29.6405
lwrist 0.631196
lhand -14.8501 20.3978
lfingers 7.12502
lthumb 11.3093 50.0729
rfemur 9.56042 -0.135608 33.9443
rtibia 6.95548
rfoot -11.7372 3.34407
rtoes 16.539
lfemur -69.2843 12.0573 -15.9219
ltibia 97.0533
lfoot -16.1052 -20.0665
ltoes -9.83343
2363
root -2.07807 17.3242 -21.0259 -361.437 -1.88286 -7.0677
lowerback 11.113 1.17295 7.94494
upperback 3.71925 2.50335 3.38565
thorax -2.13696 1.25149 -1.24444
lowerneck -14.5385 -1.17266 -7.76441
upperneck 35.5815 0.0733821 1.82639
head 14.7778 -0.743825 2.14608
rclavicle 3.76697e-014 4.77083e-015
rhumerus -28.9846 -6.8534 -82.3083
rradius 26.454
rwrist -9.85188
rhand -21.4153 9.30918
rfingers 7.12502
rthumb 4.97338 -20.6125
lclavicle 3.76697e-014 4.77083e-015
lhumerus -34.9455 8.74589 81.9961
lradius 29.2109
lwrist 0.425636
lhand -15.1138 20.7329
lfingers 7.12502
lthumb 11.055 50.4218
rfemur 9.94954 -0.282499 33.7948
rtibia 6.8493
rfoot -11.8473 3.31058
rtoes 15.5708
lfemur -69.4078 11.7282 -16.3318
ltibia 95.3332
lfoot -16.9345 -18.8669
ltoes -15.8642
2364
root -2.07711 17.3374 -20.9773 -361.508 -1.93532 -6.6303
lowerback 11.061 1.16249 7.62052
upperback 3.88649 2.43333 3.26574
thorax -1.94829 1.22604 -1.17685
lowerneck -14.6733 -1.09969 -7.88933
upperneck 35.5436 0.219128 1.86715
head 14.7824 -0.692256 2.20886
rclavicle 3.18055e-014 2.62396e-014
rhumerus -28.658 -6.6409 -82.4579
rradius 26.5359
rwrist -9.63684
rhand -22.0452 10.767
rfingers 7.12502
rthumb 4.36514 -19.168
lclavicle 3.18055e-014 2.62396e-014
lhumerus -34.7738 9.16579 81.8253
lradius 28.596
lwrist 0.0835724
lhand -15.2292 20.3309
lfingers 7.12502
lthumb 10.9437 50.0257
rfemur 10.4137 -0.304075 33.2786
rtibia 6.41956
rfoot -11.8099 3.39191
rtoes 15.0367
lfemur -69.0794 11.2685 -16.7796
ltibia 93.4265
lfoot -17.1882 -18.4739
ltoes -15.7211
2365
root -2.07933 17.344 -20.9353 -361.437 -2.02434 -6.35332
lowerback 10.8059 1.19058 7.39173
upperback 4.05901 2.40579 3.19366
thorax -1.63724 1.22504 -1.11084
lowerneck -14.7787 -1.05164 -8.1663
upperneck 35.4349 0.292128 2.12445
head 14.7494 -0.66002 2.3751
rclavicle -1.23246e-014 -1.59028e-015
rhumerus -28.0971 -6.8474 -82.4816
rradius 26.0931
rwrist -9.19929
rhand -22.893 14.5996
rfingers 7.12502
rthumb 3.54645 -15.3507
lclavicle -1.23246e-014 -1.59028e-015
lhumerus -34.575 9.62759 81.6428
lradius 28.1617
lwrist -0.408138
lhand -14.7411 20.2123
lfingers 7.12502
lthumb 11.4145 49.8816
rfemur 10.9154 -0.267044 32.9552
rtibia 5.53357
rfoot -11.4573 3.51327
rtoes 15.2187
lfemur -68.8771 10.8926 -17.0004
ltibia 91.5319
lfoot -17.3158 -18.425
ltoes -14.6692
2366
root -2.08655 17.3364 -20.8932 -361.305 -2.00633 -6.76595
lowerback 10.6447 1.16961 7.72991
upperback 4.05398 2.39896 3.3291
thorax -1.54439 1.22572 -1.15134
lowerneck -14.7631 -1.0574 -8.39062
upperneck 35.4489 0.268002 2.35524
head 14.7528 -0.669117 2.50703
rclavicle -2.51463e-014 -5.56597e-015
rhumerus -28.053 -6.96206 -82.4488
rradius 25.9596
rwrist -8.72427
rhand -20.7862 9.95183
rfingers 7.12502
rthumb 5.58074 -19.9547
lclavicle -2.51463e-014 -5.56597e-015
lhumerus -34.5833 9.98164 81.4619
lradius 27.7791
lwrist -0.871956
lhand -14.1705 21.0668
lfingers 7.12502
lthumb 11.9647 50.7048
rfemur 11.3053 -0.358692 33.4261
rtibia 4.74726
rfoot -11.1235 3.5973
rtoes 15.3926
lfemur -69.0451 10.6844 -16.5404
ltibia 89.8343
lfoot -17.3668 -18.1115
ltoes -14.6603
2367
root -2.09243 17.3283 -20.843 -361.245 -1.94 -7.12617
lowerback 10.531 1.13912 8.0231
upperback 4.07934 2.37615 3.44226
thorax -1.44794 1.21932 -1.18904
lowerneck -14.5878 -1.07865 -8.33
upperneck 35.2901 0.253748 2.19833
head 14.6409 -0.683548 2.42368
rclavicle -2.06736e-014 -3.89618e-014
rhumerus -27.8839 -6.79746 -82.5257
rradius 25.9911
rwrist -8.59059
rhand -20.3245 8.27461
rfingers 7.12502
rthumb 6.0265 -21.6197
lclavicle -2.06736e-014 -3.89618e-014
lhumerus -34.5207 10.133 81.3791
lradius 27.3118
lwrist -1.09957
lhand -13.9754 21.2823
lfingers 7.12502
lthumb 12.1529 50.9093
rfemur 11.7227 -0.508409 33.827
rtibia 4.13964
rfoot -10.9166 3.70208
rtoes 15.0873
lfemur -69.1003 10.3966 -16.1308
ltibia 88.2389
lfoot -17.0877 -17.6764
ltoes -13.9005
2368
root -2.09662 17.321 -20.7939 -361.324 -1.92559 -7.02015
lowerback 10.7879 1.13233 7.89732
upperback 4.02314 2.38589 3.3908
thorax -1.65094 1.21566 -1.18315
lowerneck -14.3279 -1.06381 -8.07766
upperneck 35.106 0.261664 1.93922
head 14.4962 -0.676165 2.26769
rclavicle -1.35174e-014 4.77083e-015
rhumerus -27.8826 -6.46996 -82.765
rradius 26.2707
rwrist -8.78917
rhand -21.4413 10.6177
rfingers 7.12502
rthumb 4.94821 -19.3046
lclavicle -1.35174e-014 4.77083e-015
lhumerus -34.6614 10.0968 81.2683
lradius 26.9327
lwrist -1.18694
lhand -14.3347 21.077
lfingers 7.12502
lthumb 11.8064 50.7242
rfemur 12.494 -0.616056 33.6842
rtibia 3.13509
rfoot -10.5173 3.84938
rtoes 14.7097
lfemur -68.8471 10.0725 -16.2054
ltibia 86.6751
lfoot -17.0482 -17.308
ltoes -14.2951
